<mxfile host="app.diagrams.net" agent="Mozilla/5.0 (Windows NT 10.0; Win64; x64) AppleWebKit/537.36 (KHTML, like Gecko) Chrome/131.0.0.0 Safari/537.36" version="26.0.8">
  <diagram name="Page-1" id="uNKYJ9B1QRNPPUBYC1YE">
    <mxGraphModel dx="1120" dy="1568" grid="1" gridSize="10" guides="1" tooltips="1" connect="1" arrows="1" fold="1" page="1" pageScale="1" pageWidth="850" pageHeight="1100" math="0" shadow="0">
      <root>
        <mxCell id="0" />
        <mxCell id="1" parent="0" />
        <mxCell id="82IDj3iVrOEZIIXz_pep-4" value="" style="endArrow=classic;html=1;rounded=0;exitX=1;exitY=0.3333333333333333;exitDx=0;exitDy=0;exitPerimeter=0;strokeColor=light-dark(#FEFEFE,#FFFFFF);" parent="1" source="82IDj3iVrOEZIIXz_pep-18" edge="1">
          <mxGeometry width="50" height="50" relative="1" as="geometry">
            <mxPoint x="160" y="-530" as="sourcePoint" />
            <mxPoint x="460" y="-540" as="targetPoint" />
            <Array as="points">
              <mxPoint x="300" y="-490" />
              <mxPoint x="330" y="-490" />
            </Array>
          </mxGeometry>
        </mxCell>
        <mxCell id="82IDj3iVrOEZIIXz_pep-7" value="FOOD DELIVERY MANAGMENT SYSTER&amp;nbsp;&lt;div&gt;OF BERNOS HOTEL&lt;/div&gt;" style="whiteSpace=wrap;html=1;align=center;" parent="1" vertex="1">
          <mxGeometry x="240" y="-770" width="480" height="40" as="geometry" />
        </mxCell>
        <mxCell id="82IDj3iVrOEZIIXz_pep-11" value="G" style="swimlane;startSize=0;" parent="1" vertex="1">
          <mxGeometry x="80" y="-690" width="710" height="750" as="geometry" />
        </mxCell>
        <mxCell id="82IDj3iVrOEZIIXz_pep-16" value="Browse" style="shape=ellipse;html=1;dashed=0;whiteSpace=wrap;perimeter=ellipsePerimeter;" parent="82IDj3iVrOEZIIXz_pep-11" vertex="1">
          <mxGeometry x="130" y="40" width="60" height="50" as="geometry" />
        </mxCell>
        <mxCell id="82IDj3iVrOEZIIXz_pep-20" value="submit order" style="shape=ellipse;html=1;dashed=0;whiteSpace=wrap;perimeter=ellipsePerimeter;" parent="82IDj3iVrOEZIIXz_pep-11" vertex="1">
          <mxGeometry x="190" y="170" width="70" height="30" as="geometry" />
        </mxCell>
        <mxCell id="82IDj3iVrOEZIIXz_pep-18" value="Place Order" style="shape=ellipse;html=1;dashed=0;whiteSpace=wrap;perimeter=ellipsePerimeter;" parent="82IDj3iVrOEZIIXz_pep-11" vertex="1">
          <mxGeometry x="190" y="90" width="70" height="30" as="geometry" />
        </mxCell>
        <mxCell id="82IDj3iVrOEZIIXz_pep-23" value="" style="endArrow=none;html=1;rounded=0;exitX=0;exitY=0.5;exitDx=0;exitDy=0;" parent="82IDj3iVrOEZIIXz_pep-11" source="82IDj3iVrOEZIIXz_pep-18" target="82IDj3iVrOEZIIXz_pep-16" edge="1">
          <mxGeometry width="50" height="50" relative="1" as="geometry">
            <mxPoint x="170" y="160" as="sourcePoint" />
            <mxPoint x="360" y="130" as="targetPoint" />
            <Array as="points">
              <mxPoint x="-20" y="120" />
            </Array>
          </mxGeometry>
        </mxCell>
        <mxCell id="V3vkMZOiI83B4uo7UNX7-9" value="include" style="edgeLabel;html=1;align=center;verticalAlign=middle;resizable=0;points=[];" parent="82IDj3iVrOEZIIXz_pep-23" vertex="1" connectable="0">
          <mxGeometry x="0.3933" y="3" relative="1" as="geometry">
            <mxPoint as="offset" />
          </mxGeometry>
        </mxCell>
        <mxCell id="82IDj3iVrOEZIIXz_pep-24" value="" style="endArrow=none;html=1;rounded=0;exitX=0;exitY=0.5;exitDx=0;exitDy=0;" parent="82IDj3iVrOEZIIXz_pep-11" source="V3vkMZOiI83B4uo7UNX7-72" target="82IDj3iVrOEZIIXz_pep-20" edge="1">
          <mxGeometry width="50" height="50" relative="1" as="geometry">
            <mxPoint x="180" y="210" as="sourcePoint" />
            <mxPoint x="370" y="130" as="targetPoint" />
            <Array as="points">
              <mxPoint x="-20" y="120" />
            </Array>
          </mxGeometry>
        </mxCell>
        <mxCell id="V3vkMZOiI83B4uo7UNX7-14" value="login" style="shape=ellipse;html=1;dashed=0;whiteSpace=wrap;perimeter=ellipsePerimeter;" parent="82IDj3iVrOEZIIXz_pep-11" vertex="1">
          <mxGeometry x="270" y="20" width="60" height="20" as="geometry" />
        </mxCell>
        <mxCell id="V3vkMZOiI83B4uo7UNX7-16" value="" style="endArrow=none;dashed=1;html=1;rounded=0;exitX=0.983;exitY=0.32;exitDx=0;exitDy=0;exitPerimeter=0;entryX=-0.033;entryY=0.38;entryDx=0;entryDy=0;entryPerimeter=0;" parent="82IDj3iVrOEZIIXz_pep-11" source="82IDj3iVrOEZIIXz_pep-16" target="V3vkMZOiI83B4uo7UNX7-14" edge="1">
          <mxGeometry width="50" height="50" relative="1" as="geometry">
            <mxPoint x="460" y="190" as="sourcePoint" />
            <mxPoint x="510" y="140" as="targetPoint" />
          </mxGeometry>
        </mxCell>
        <mxCell id="V3vkMZOiI83B4uo7UNX7-19" value="" style="endArrow=none;dashed=1;html=1;rounded=0;exitX=1;exitY=1;exitDx=0;exitDy=0;entryX=0;entryY=0.5;entryDx=0;entryDy=0;" parent="82IDj3iVrOEZIIXz_pep-11" source="82IDj3iVrOEZIIXz_pep-16" target="V3vkMZOiI83B4uo7UNX7-20" edge="1">
          <mxGeometry width="50" height="50" relative="1" as="geometry">
            <mxPoint x="470" y="300" as="sourcePoint" />
            <mxPoint x="520" y="250" as="targetPoint" />
          </mxGeometry>
        </mxCell>
        <mxCell id="V3vkMZOiI83B4uo7UNX7-20" value="signup" style="ellipse;whiteSpace=wrap;html=1;" parent="82IDj3iVrOEZIIXz_pep-11" vertex="1">
          <mxGeometry x="270" y="50" width="50" height="30" as="geometry" />
        </mxCell>
        <mxCell id="V3vkMZOiI83B4uo7UNX7-24" value="view feedback" style="ellipse;whiteSpace=wrap;html=1;" parent="82IDj3iVrOEZIIXz_pep-11" vertex="1">
          <mxGeometry x="260" y="330" width="50" height="30" as="geometry" />
        </mxCell>
        <mxCell id="V3vkMZOiI83B4uo7UNX7-35" value="send notification" style="ellipse;whiteSpace=wrap;html=1;" parent="82IDj3iVrOEZIIXz_pep-11" vertex="1">
          <mxGeometry x="235" y="270" width="120" height="30" as="geometry" />
        </mxCell>
        <mxCell id="V3vkMZOiI83B4uo7UNX7-44" value="view menu" style="ellipse;whiteSpace=wrap;html=1;" parent="82IDj3iVrOEZIIXz_pep-11" vertex="1">
          <mxGeometry x="180" y="130" width="70" height="30" as="geometry" />
        </mxCell>
        <mxCell id="V3vkMZOiI83B4uo7UNX7-46" value="" style="endArrow=none;dashed=1;html=1;rounded=0;exitX=0;exitY=1;exitDx=0;exitDy=0;" parent="82IDj3iVrOEZIIXz_pep-11" source="V3vkMZOiI83B4uo7UNX7-14" target="82IDj3iVrOEZIIXz_pep-18" edge="1">
          <mxGeometry width="50" height="50" relative="1" as="geometry">
            <mxPoint x="480" y="220" as="sourcePoint" />
            <mxPoint x="530" y="170" as="targetPoint" />
          </mxGeometry>
        </mxCell>
        <mxCell id="V3vkMZOiI83B4uo7UNX7-49" value="make pyment" style="ellipse;whiteSpace=wrap;html=1;" parent="82IDj3iVrOEZIIXz_pep-11" vertex="1">
          <mxGeometry x="345" y="90" width="90" height="20" as="geometry" />
        </mxCell>
        <mxCell id="V3vkMZOiI83B4uo7UNX7-61" value="" style="endArrow=none;dashed=1;html=1;rounded=0;exitX=0;exitY=1;exitDx=0;exitDy=0;entryX=1;entryY=0;entryDx=0;entryDy=0;" parent="82IDj3iVrOEZIIXz_pep-11" source="82IDj3iVrOEZIIXz_pep-18" target="V3vkMZOiI83B4uo7UNX7-44" edge="1">
          <mxGeometry width="50" height="50" relative="1" as="geometry">
            <mxPoint x="360" y="280" as="sourcePoint" />
            <mxPoint x="410" y="230" as="targetPoint" />
          </mxGeometry>
        </mxCell>
        <mxCell id="V3vkMZOiI83B4uo7UNX7-60" value="" style="endArrow=none;dashed=1;html=1;rounded=0;entryX=0.5;entryY=0;entryDx=0;entryDy=0;exitX=0.708;exitY=0;exitDx=0;exitDy=0;exitPerimeter=0;" parent="82IDj3iVrOEZIIXz_pep-11" source="V3vkMZOiI83B4uo7UNX7-35" target="V3vkMZOiI83B4uo7UNX7-44" edge="1">
          <mxGeometry width="50" height="50" relative="1" as="geometry">
            <mxPoint x="370" y="260" as="sourcePoint" />
            <mxPoint x="420" y="210" as="targetPoint" />
          </mxGeometry>
        </mxCell>
        <mxCell id="V3vkMZOiI83B4uo7UNX7-72" value="Assign delivery" style="shape=ellipse;html=1;dashed=0;whiteSpace=wrap;perimeter=ellipsePerimeter;" parent="82IDj3iVrOEZIIXz_pep-11" vertex="1">
          <mxGeometry x="320" y="220" width="70" height="30" as="geometry" />
        </mxCell>
        <mxCell id="V3vkMZOiI83B4uo7UNX7-79" value="" style="endArrow=none;dashed=1;html=1;rounded=0;exitX=0.267;exitY=0.95;exitDx=0;exitDy=0;exitPerimeter=0;entryX=1;entryY=0.5;entryDx=0;entryDy=0;" parent="82IDj3iVrOEZIIXz_pep-11" source="V3vkMZOiI83B4uo7UNX7-49" target="82IDj3iVrOEZIIXz_pep-20" edge="1">
          <mxGeometry width="50" height="50" relative="1" as="geometry">
            <mxPoint x="370" y="260" as="sourcePoint" />
            <mxPoint x="420" y="210" as="targetPoint" />
          </mxGeometry>
        </mxCell>
        <mxCell id="V3vkMZOiI83B4uo7UNX7-82" value="" style="endArrow=none;dashed=1;html=1;rounded=0;exitX=0.375;exitY=1.033;exitDx=0;exitDy=0;exitPerimeter=0;entryX=0.5;entryY=1;entryDx=0;entryDy=0;" parent="82IDj3iVrOEZIIXz_pep-11" source="V3vkMZOiI83B4uo7UNX7-35" target="V3vkMZOiI83B4uo7UNX7-24" edge="1">
          <mxGeometry width="50" height="50" relative="1" as="geometry">
            <mxPoint x="370" y="260" as="sourcePoint" />
            <mxPoint x="420" y="210" as="targetPoint" />
          </mxGeometry>
        </mxCell>
        <mxCell id="V3vkMZOiI83B4uo7UNX7-83" value="view order" style="ellipse;whiteSpace=wrap;html=1;aspect=fixed;" parent="82IDj3iVrOEZIIXz_pep-11" vertex="1">
          <mxGeometry x="470" y="420" width="50" height="50" as="geometry" />
        </mxCell>
        <mxCell id="V3vkMZOiI83B4uo7UNX7-84" value="" style="endArrow=none;dashed=1;html=1;rounded=0;entryX=0;entryY=0.5;entryDx=0;entryDy=0;exitX=0.5;exitY=1;exitDx=0;exitDy=0;" parent="82IDj3iVrOEZIIXz_pep-11" source="V3vkMZOiI83B4uo7UNX7-35" target="V3vkMZOiI83B4uo7UNX7-83" edge="1">
          <mxGeometry width="50" height="50" relative="1" as="geometry">
            <mxPoint x="370" y="360" as="sourcePoint" />
            <mxPoint x="420" y="310" as="targetPoint" />
          </mxGeometry>
        </mxCell>
        <mxCell id="V3vkMZOiI83B4uo7UNX7-91" value="" style="endArrow=none;html=1;rounded=0;exitX=-0.003;exitY=0.517;exitDx=0;exitDy=0;exitPerimeter=0;entryX=0;entryY=0.5;entryDx=0;entryDy=0;" parent="82IDj3iVrOEZIIXz_pep-11" source="82IDj3iVrOEZIIXz_pep-11" target="V3vkMZOiI83B4uo7UNX7-83" edge="1">
          <mxGeometry width="50" height="50" relative="1" as="geometry">
            <mxPoint x="410" y="550" as="sourcePoint" />
            <mxPoint x="460" y="500" as="targetPoint" />
          </mxGeometry>
        </mxCell>
        <mxCell id="V3vkMZOiI83B4uo7UNX7-98" value="update menu" style="ellipse;whiteSpace=wrap;html=1;aspect=fixed;" parent="82IDj3iVrOEZIIXz_pep-11" vertex="1">
          <mxGeometry x="510" y="160" width="50" height="50" as="geometry" />
        </mxCell>
        <mxCell id="V3vkMZOiI83B4uo7UNX7-97" value="" style="endArrow=none;html=1;rounded=0;" parent="82IDj3iVrOEZIIXz_pep-11" target="V3vkMZOiI83B4uo7UNX7-98" edge="1">
          <mxGeometry width="50" height="50" relative="1" as="geometry">
            <mxPoint x="740" y="90" as="sourcePoint" />
            <mxPoint x="740" y="90" as="targetPoint" />
          </mxGeometry>
        </mxCell>
        <mxCell id="V3vkMZOiI83B4uo7UNX7-99" value="track order" style="ellipse;whiteSpace=wrap;html=1;" parent="82IDj3iVrOEZIIXz_pep-11" vertex="1">
          <mxGeometry x="510" y="220" width="70" height="30" as="geometry" />
        </mxCell>
        <mxCell id="V3vkMZOiI83B4uo7UNX7-101" value="view order history" style="ellipse;whiteSpace=wrap;html=1;" parent="82IDj3iVrOEZIIXz_pep-11" vertex="1">
          <mxGeometry x="510" y="280" width="90" height="30" as="geometry" />
        </mxCell>
        <mxCell id="82IDj3iVrOEZIIXz_pep-12" value="customer" style="shape=umlActor;verticalLabelPosition=bottom;verticalAlign=top;html=1;outlineConnect=0;" parent="1" vertex="1">
          <mxGeometry x="30" y="-630" width="30" height="40" as="geometry" />
        </mxCell>
        <mxCell id="82IDj3iVrOEZIIXz_pep-13" value="hotel admin" style="shape=umlActor;verticalLabelPosition=bottom;verticalAlign=top;html=1;outlineConnect=0;" parent="1" vertex="1">
          <mxGeometry x="820" y="-620" width="20" height="40" as="geometry" />
        </mxCell>
        <mxCell id="82IDj3iVrOEZIIXz_pep-15" value="delivery person" style="shape=umlActor;verticalLabelPosition=bottom;verticalAlign=top;html=1;outlineConnect=0;" parent="1" vertex="1">
          <mxGeometry x="825" y="-400" width="25" height="40" as="geometry" />
        </mxCell>
        <mxCell id="82IDj3iVrOEZIIXz_pep-19" value="" style="endArrow=classic;html=1;rounded=0;exitX=1;exitY=0.3333333333333333;exitDx=0;exitDy=0;exitPerimeter=0;strokeColor=light-dark(#FEFEFE,#FFFFFF);" parent="1" target="82IDj3iVrOEZIIXz_pep-18" edge="1">
          <mxGeometry width="50" height="50" relative="1" as="geometry">
            <mxPoint x="160" y="-530" as="sourcePoint" />
            <mxPoint x="460" y="-540" as="targetPoint" />
            <Array as="points">
              <mxPoint x="190" y="-550" />
            </Array>
          </mxGeometry>
        </mxCell>
        <mxCell id="V3vkMZOiI83B4uo7UNX7-1" value="system admin" style="shape=umlActor;verticalLabelPosition=bottom;verticalAlign=top;html=1;outlineConnect=0;" parent="1" vertex="1">
          <mxGeometry x="40" y="-490" width="20" height="40" as="geometry" />
        </mxCell>
        <mxCell id="V3vkMZOiI83B4uo7UNX7-2" style="edgeStyle=orthogonalEdgeStyle;rounded=0;orthogonalLoop=1;jettySize=auto;html=1;exitX=0.75;exitY=0.1;exitDx=0;exitDy=0;exitPerimeter=0;entryX=0.5;entryY=0.5;entryDx=0;entryDy=0;entryPerimeter=0;" parent="1" source="V3vkMZOiI83B4uo7UNX7-1" target="V3vkMZOiI83B4uo7UNX7-1" edge="1">
          <mxGeometry relative="1" as="geometry" />
        </mxCell>
        <mxCell id="V3vkMZOiI83B4uo7UNX7-5" value="kichen staff" style="shape=umlActor;verticalLabelPosition=bottom;verticalAlign=top;html=1;outlineConnect=0;" parent="1" vertex="1">
          <mxGeometry x="50" y="-320" width="20" height="40" as="geometry" />
        </mxCell>
        <mxCell id="V3vkMZOiI83B4uo7UNX7-32" value="" style="endArrow=none;html=1;rounded=0;entryX=0;entryY=0.5;entryDx=0;entryDy=0;" parent="1" target="V3vkMZOiI83B4uo7UNX7-24" edge="1">
          <mxGeometry width="50" height="50" relative="1" as="geometry">
            <mxPoint x="70" y="-460" as="sourcePoint" />
            <mxPoint x="600" y="-460" as="targetPoint" />
          </mxGeometry>
        </mxCell>
        <mxCell id="V3vkMZOiI83B4uo7UNX7-36" value="" style="endArrow=none;html=1;rounded=0;entryX=0;entryY=0.5;entryDx=0;entryDy=0;" parent="1" target="V3vkMZOiI83B4uo7UNX7-35" edge="1">
          <mxGeometry width="50" height="50" relative="1" as="geometry">
            <mxPoint x="70" y="-460" as="sourcePoint" />
            <mxPoint x="610" y="-460" as="targetPoint" />
          </mxGeometry>
        </mxCell>
        <mxCell id="V3vkMZOiI83B4uo7UNX7-41" value="" style="endArrow=none;html=1;rounded=0;exitX=1;exitY=0.3333333333333333;exitDx=0;exitDy=0;exitPerimeter=0;entryX=1;entryY=1;entryDx=0;entryDy=0;" parent="1" source="V3vkMZOiI83B4uo7UNX7-5" target="V3vkMZOiI83B4uo7UNX7-35" edge="1">
          <mxGeometry width="50" height="50" relative="1" as="geometry">
            <mxPoint x="560" y="-410" as="sourcePoint" />
            <mxPoint x="610" y="-460" as="targetPoint" />
          </mxGeometry>
        </mxCell>
        <mxCell id="V3vkMZOiI83B4uo7UNX7-42" value="include" style="edgeLabel;html=1;align=center;verticalAlign=middle;resizable=0;points=[];" parent="V3vkMZOiI83B4uo7UNX7-41" vertex="1" connectable="0">
          <mxGeometry x="0.9006" y="1" relative="1" as="geometry">
            <mxPoint x="1" as="offset" />
          </mxGeometry>
        </mxCell>
        <mxCell id="V3vkMZOiI83B4uo7UNX7-43" value="" style="endArrow=none;html=1;rounded=0;exitX=1;exitY=0.3333333333333333;exitDx=0;exitDy=0;exitPerimeter=0;entryX=0;entryY=1;entryDx=0;entryDy=0;" parent="1" source="V3vkMZOiI83B4uo7UNX7-5" target="V3vkMZOiI83B4uo7UNX7-24" edge="1">
          <mxGeometry width="50" height="50" relative="1" as="geometry">
            <mxPoint x="560" y="-410" as="sourcePoint" />
            <mxPoint x="610" y="-460" as="targetPoint" />
          </mxGeometry>
        </mxCell>
        <mxCell id="V3vkMZOiI83B4uo7UNX7-45" value="" style="endArrow=none;html=1;rounded=0;entryX=0;entryY=0.5;entryDx=0;entryDy=0;" parent="1" target="V3vkMZOiI83B4uo7UNX7-44" edge="1">
          <mxGeometry width="50" height="50" relative="1" as="geometry">
            <mxPoint x="60" y="-600" as="sourcePoint" />
            <mxPoint x="610" y="-450" as="targetPoint" />
          </mxGeometry>
        </mxCell>
        <mxCell id="V3vkMZOiI83B4uo7UNX7-54" value="" style="endArrow=none;html=1;rounded=0;entryX=0.5;entryY=1;entryDx=0;entryDy=0;" parent="1" target="82IDj3iVrOEZIIXz_pep-16" edge="1">
          <mxGeometry width="50" height="50" relative="1" as="geometry">
            <mxPoint x="70" y="-460" as="sourcePoint" />
            <mxPoint x="620" y="-540" as="targetPoint" />
          </mxGeometry>
        </mxCell>
        <mxCell id="V3vkMZOiI83B4uo7UNX7-77" value="" style="endArrow=none;html=1;rounded=0;" parent="1" edge="1">
          <mxGeometry width="50" height="50" relative="1" as="geometry">
            <mxPoint x="70" y="-450" as="sourcePoint" />
            <mxPoint x="280" y="-500" as="targetPoint" />
          </mxGeometry>
        </mxCell>
        <mxCell id="V3vkMZOiI83B4uo7UNX7-78" value="" style="endArrow=none;dashed=1;html=1;rounded=0;entryX=0;entryY=0.5;entryDx=0;entryDy=0;" parent="1" target="V3vkMZOiI83B4uo7UNX7-35" edge="1">
          <mxGeometry width="50" height="50" relative="1" as="geometry">
            <mxPoint x="320" y="-500" as="sourcePoint" />
            <mxPoint x="540" y="-490" as="targetPoint" />
          </mxGeometry>
        </mxCell>
        <mxCell id="V3vkMZOiI83B4uo7UNX7-90" value="" style="endArrow=none;html=1;rounded=0;exitX=1.02;exitY=0.7;exitDx=0;exitDy=0;exitPerimeter=0;" parent="1" source="V3vkMZOiI83B4uo7UNX7-83" target="82IDj3iVrOEZIIXz_pep-15" edge="1">
          <mxGeometry width="50" height="50" relative="1" as="geometry">
            <mxPoint x="490" y="-140" as="sourcePoint" />
            <mxPoint x="540" y="-190" as="targetPoint" />
          </mxGeometry>
        </mxCell>
        <mxCell id="V3vkMZOiI83B4uo7UNX7-92" value="include" style="text;html=1;align=center;verticalAlign=middle;resizable=0;points=[];autosize=1;strokeColor=none;fillColor=none;" parent="1" vertex="1">
          <mxGeometry x="230" y="-282" width="60" height="30" as="geometry" />
        </mxCell>
        <mxCell id="V3vkMZOiI83B4uo7UNX7-93" value="" style="endArrow=none;html=1;rounded=0;exitX=1;exitY=0;exitDx=0;exitDy=0;" parent="1" source="V3vkMZOiI83B4uo7UNX7-14" target="82IDj3iVrOEZIIXz_pep-13" edge="1">
          <mxGeometry width="50" height="50" relative="1" as="geometry">
            <mxPoint x="490" y="-540" as="sourcePoint" />
            <mxPoint x="540" y="-590" as="targetPoint" />
          </mxGeometry>
        </mxCell>
        <mxCell id="V3vkMZOiI83B4uo7UNX7-47" value="choose food" style="ellipse;whiteSpace=wrap;html=1;" parent="1" vertex="1">
          <mxGeometry x="435" y="-640" width="70" height="20" as="geometry" />
        </mxCell>
        <mxCell id="V3vkMZOiI83B4uo7UNX7-58" value="" style="endArrow=none;dashed=1;html=1;rounded=0;exitX=1;exitY=0;exitDx=0;exitDy=0;entryX=0.286;entryY=1.2;entryDx=0;entryDy=0;entryPerimeter=0;" parent="1" source="V3vkMZOiI83B4uo7UNX7-44" target="V3vkMZOiI83B4uo7UNX7-47" edge="1">
          <mxGeometry width="50" height="50" relative="1" as="geometry">
            <mxPoint x="440" y="-410" as="sourcePoint" />
            <mxPoint x="490" y="-460" as="targetPoint" />
          </mxGeometry>
        </mxCell>
        <mxCell id="V3vkMZOiI83B4uo7UNX7-94" value="" style="endArrow=none;dashed=1;html=1;rounded=0;exitX=1;exitY=0;exitDx=0;exitDy=0;" parent="1" source="82IDj3iVrOEZIIXz_pep-20" target="V3vkMZOiI83B4uo7UNX7-47" edge="1">
          <mxGeometry width="50" height="50" relative="1" as="geometry">
            <mxPoint x="330" y="-516" as="sourcePoint" />
            <mxPoint x="500" y="-650" as="targetPoint" />
          </mxGeometry>
        </mxCell>
        <mxCell id="V3vkMZOiI83B4uo7UNX7-95" value="" style="endArrow=none;dashed=1;html=1;rounded=0;" parent="1" edge="1">
          <mxGeometry width="50" height="50" relative="1" as="geometry">
            <mxPoint x="340" y="-500" as="sourcePoint" />
            <mxPoint x="820" y="-600" as="targetPoint" />
          </mxGeometry>
        </mxCell>
        <mxCell id="V3vkMZOiI83B4uo7UNX7-100" value="" style="endArrow=none;html=1;rounded=0;exitX=1;exitY=0;exitDx=0;exitDy=0;" parent="1" source="V3vkMZOiI83B4uo7UNX7-99" edge="1">
          <mxGeometry width="50" height="50" relative="1" as="geometry">
            <mxPoint x="490" y="-440" as="sourcePoint" />
            <mxPoint x="820" y="-600" as="targetPoint" />
          </mxGeometry>
        </mxCell>
        <mxCell id="V3vkMZOiI83B4uo7UNX7-102" value="" style="endArrow=none;html=1;rounded=0;exitX=0.778;exitY=0;exitDx=0;exitDy=0;exitPerimeter=0;" parent="1" source="V3vkMZOiI83B4uo7UNX7-101" edge="1">
          <mxGeometry width="50" height="50" relative="1" as="geometry">
            <mxPoint x="490" y="-440" as="sourcePoint" />
            <mxPoint x="820" y="-600" as="targetPoint" />
          </mxGeometry>
        </mxCell>
        <mxCell id="V3vkMZOiI83B4uo7UNX7-105" value="" style="endArrow=none;dashed=1;html=1;rounded=0;exitX=0.575;exitY=-0.067;exitDx=0;exitDy=0;exitPerimeter=0;" parent="1" source="V3vkMZOiI83B4uo7UNX7-35" edge="1">
          <mxGeometry width="50" height="50" relative="1" as="geometry">
            <mxPoint x="490" y="-440" as="sourcePoint" />
            <mxPoint x="450" y="-580" as="targetPoint" />
          </mxGeometry>
        </mxCell>
        <mxCell id="CtbQ_G5vhdU26MrdULa4-1" value="" style="endArrow=none;dashed=1;html=1;rounded=0;" edge="1" parent="1" source="82IDj3iVrOEZIIXz_pep-11">
          <mxGeometry width="50" height="50" relative="1" as="geometry">
            <mxPoint x="550" y="-430" as="sourcePoint" />
            <mxPoint x="810" y="-600" as="targetPoint" />
          </mxGeometry>
        </mxCell>
        <mxCell id="CtbQ_G5vhdU26MrdULa4-3" value="" style="endArrow=none;dashed=1;html=1;rounded=0;entryX=0;entryY=1;entryDx=0;entryDy=0;" edge="1" parent="1" target="V3vkMZOiI83B4uo7UNX7-98">
          <mxGeometry width="50" height="50" relative="1" as="geometry">
            <mxPoint x="350" y="-500" as="sourcePoint" />
            <mxPoint x="600" y="-480" as="targetPoint" />
          </mxGeometry>
        </mxCell>
      </root>
    </mxGraphModel>
  </diagram>
</mxfile>
